<?xml version="1.0" encoding="UTF-8"?>
<svg width="155px" height="56px" viewBox="0 0 285 36" version="1.1" xmlns="http://www.w3.org/2000/svg" xmlns:xlink="http://www.w3.org/1999/xlink">    
    <defs>
        <polygon id="path-1" points="0 0.452191304 23.4785944 0.452191304 23.4785944 17.6086957 0 17.6086957"></polygon>
        <polygon id="path-3" points="0.481931287 0.0340434783 23.9605818 0.0340434783 23.9605818 17.1900783 0.481931287 17.1900783"></polygon>
    </defs>
    <g id="Page-1" stroke="none" stroke-width="1" fill="none" fill-rule="evenodd">
        <g id="Devfest-Web-Home" transform="translate(-818.000000, -4910.000000)">
            <g id="gdg-logo-blanco" transform="translate(818.000000, 4909.000000)">
                <g id="Group-5" transform="translate(68.000000, 4.000000)" fill="#FFFFFF" fill-rule="nonzero">
                    <path d="M4.68276583,17.7157313 C3.26028302,16.8999243 2.08088675,15.718861 1.26623122,14.2943676 C0.4199854,12.8320703 -0.017238604,11.1684748 0.00052021154,9.47845853 C-0.017238604,7.78844223 0.4199854,6.12484679 1.26623122,4.66254944 C2.93776244,1.7556758 6.04202298,-0.0255322055 9.39156483,0.000276712682 C10.6784363,-0.00837468456 11.9548221,0.232414614 13.150343,0.709367622 C14.2604025,1.13881997 15.2532139,1.82525329 16.0476115,2.71254944 L14.5045652,4.25777671 C13.91792,3.53842303 13.1614519,2.97687053 12.3035853,2.62391308 C11.3902898,2.2399838 10.4085904,2.04597993 9.41811821,2.0536858 C8.16428092,2.04537285 6.92988138,2.36408221 5.83636258,2.97845853 C4.73358132,3.59380559 3.81641864,4.49491594 3.1810248,5.58732217 C2.49953417,6.76876296 2.15366582,8.11434538 2.18084757,9.47845853 C2.15255826,10.8413836 2.49743429,12.1860533 3.17807442,13.3666403 C3.81534071,14.4634421 4.73825328,15.3662132 5.84816408,15.9784585 C7.89236448,17.0737099 10.316632,17.203591 12.4658559,16.333004 C13.2606929,15.9694541 13.9787386,15.4569855 14.581275,14.8232313 C15.0357379,14.3220376 15.3956125,13.7424213 15.6434101,13.1125494 C15.9224374,12.4035343 16.0935017,11.65656 16.1508747,10.8966403 L9.44172121,10.8966403 L9.44172121,8.89641308 L18.1394276,8.89641308 C18.2208444,9.33099194 18.2633021,9.77198963 18.2662968,10.2141403 C18.2671408,11.3192025 18.0877571,12.4169854 17.7352262,13.4641403 C17.3890873,14.5075511 16.8087403,15.4576332 16.0387604,16.2414131 C14.368848,18.0495949 12.1501657,18.9536858 9.38271371,18.9536858 C7.73382735,18.9683638 6.11105491,18.5409296 4.68276583,17.7157313 L4.68276583,17.7157313 Z" id="Path"></path>
                    <path d="M21,0.00309689239 L26.4670455,0.00309689239 C28.1579092,-0.0393109539 29.8312529,0.354434832 31.3263136,1.14650598 C32.6780921,1.88311243 33.7863483,2.99806846 34.5156693,4.35514235 C35.2816478,5.81072109 35.6654209,7.43745368 35.6309112,9.08241507 C35.6652913,10.7273627 35.2815257,12.3540633 34.5156693,13.8096878 C33.7863054,15.1659789 32.6779873,16.2799704 31.3263136,17.0153696 C29.8323504,17.8115422 28.1589466,18.2093721 26.4670455,18.1705969 L21,18.1705969 L21,0.00309689239 Z M26.4670455,16.0994605 C28.6090179,16.0994605 30.3094176,15.4819605 31.5682444,14.2469605 C32.8270712,13.0119605 33.4555011,11.2884757 33.4535388,9.07650598 C33.4535388,6.86256659 32.8251043,5.13908174 31.5682444,3.90605144 C30.3113845,2.67302113 28.6109848,2.05650598 26.4670455,2.05650598 L23.1272206,2.05650598 L23.1272206,16.0994605 L26.4670455,16.0994605 Z" id="Shape"></path>
                    <path d="M42.6827658,17.7157313 C41.260283,16.8999243 40.0808868,15.718861 39.2662312,14.2943676 C38.4199854,12.8320703 37.9827614,11.1684748 38.0005202,9.47845853 C37.9827614,7.78844223 38.4199854,6.12484679 39.2662312,4.66254944 C40.9377624,1.7556758 44.042023,-0.0255322055 47.3915648,0.000276712682 C48.6784162,-0.00815137579 49.9547596,0.232629931 51.150343,0.709367622 C52.2631695,1.13839047 53.258955,1.82478316 54.0564627,2.71254944 L52.5134164,4.25777671 C51.9251698,3.53884319 51.1678698,2.97742577 50.309486,2.62391308 C48.2115662,1.75405365 45.8328245,1.8844608 43.8422633,2.97845853 C42.740094,3.59462464 41.8231255,4.49554422 41.1869255,5.58732217 C40.5064649,6.76905891 40.1616216,8.11462289 40.1896987,9.47845853 C40.1578266,10.8402733 40.4986027,12.1848695 41.175124,13.3666403 C41.813551,14.4635571 42.7374356,15.3662816 43.8481641,15.9784585 C45.8923645,17.0737099 48.316632,17.203591 50.4658559,16.333004 C51.2605949,15.9705866 51.9786687,15.4591009 52.581275,14.8261858 C53.0376884,14.3259108 53.3986802,13.7461056 53.6463605,13.115504 C53.9243779,12.406331 54.0944466,11.6593616 54.1508747,10.8995949 L47.4417212,10.8995949 L47.4417212,8.89641308 L56.1482788,8.89641308 C56.2282378,9.33119759 56.2706831,9.77206667 56.2751479,10.2141403 C56.2759919,11.3192025 56.0966082,12.4169854 55.7440773,13.4641403 C55.3979384,14.5075511 54.8175914,15.4576332 54.0476115,16.2414131 C52.3776991,18.0495949 50.1590169,18.9536858 47.3915648,18.9536858 C45.7396823,18.9699499 44.1136483,18.5424616 42.6827658,17.7157313 L42.6827658,17.7157313 Z" id="Path"></path>
                    <path d="M68.6092581,17.7043401 C67.1939401,16.8977075 66.0249885,15.7199534 65.228128,14.2977492 C64.4026902,12.8233173 63.9793876,11.1572643 64.0007718,9.46706736 C63.9797677,7.7778526 64.4030625,6.11284956 65.228128,4.63934008 C66.0265075,3.22057751 67.1952884,2.04605939 68.6092581,1.24161281 C70.0645458,0.408603327 71.7156929,-0.019812444 73.3918165,0.000703720559 C74.6692248,-0.0144697023 75.934656,0.248652316 77.1004382,0.771840084 C78.2191481,1.28688704 79.2157729,2.03415322 80.0242602,2.96411281 L78.4782635,4.46206736 C77.8655433,3.69585484 77.0932745,3.07273009 76.2153256,2.63615827 C75.3301369,2.2301861 74.3652741,2.02825788 73.3918165,2.04524918 C72.1252367,2.03215527 70.8772538,2.35095786 69.771706,2.9700219 C68.6771117,3.58404814 67.7711031,4.48622874 67.1517727,5.57888554 C66.4869452,6.76594108 66.1508187,8.10928766 66.1781488,9.4700219 C66.1511571,10.8288429 66.4872958,12.1701979 67.1517727,13.3552492 C67.7701924,14.4493623 68.6763562,15.3527194 69.771706,15.9670674 C70.8764074,16.5892213 72.1244407,16.9110925 73.3918165,16.9007037 C75.5849288,16.9007037 77.4534998,15.9966128 78.9975296,14.188431 L80.5553277,15.7188855 C79.6998615,16.722043 78.6380992,17.5283088 77.4426818,18.0825219 C74.605924,19.36708 71.3292205,19.2300837 68.6092581,17.7132037 L68.6092581,17.7043401 Z" id="Path"></path>
                    <path d="M85.210501,17.825838 C84.2116067,17.2293457 83.3952247,16.3699111 82.8502007,15.3410653 C82.2786413,14.2743374 81.9863085,13.0799746 82.0004926,11.8694743 C81.9863085,10.6589741 82.2786413,9.46461126 82.8502007,8.39788343 C83.3952247,7.36903759 84.2116067,6.50960298 85.210501,5.91311071 C87.3259563,4.69562976 89.9281148,4.69562976 92.0435702,5.91311071 C93.0431321,6.50876563 93.8597149,7.36841163 94.4038704,8.39788343 C94.9754298,9.46461126 95.2677626,10.6589741 95.2535785,11.8694743 C95.2677626,13.0799746 94.9754298,14.2743374 94.4038704,15.3410653 C93.8597149,16.3705371 93.0431321,17.2301831 92.0435702,17.825838 C89.9281148,19.0433189 87.3259563,19.0433189 85.210501,17.825838 L85.210501,17.825838 Z M90.8427674,16.1919743 C91.5358536,15.7812427 92.1047981,15.1900519 92.4890769,14.4812925 C92.9162345,13.6784458 93.1296198,12.7789258 93.1086557,11.8694743 C93.1300201,10.9599806 92.9166111,10.0603603 92.4890769,9.25765616 C92.1047981,8.54889674 91.5358536,7.95770594 90.8427674,7.54697434 C90.1702205,7.15519013 89.4050825,6.95113702 88.6270356,6.95597805 C87.0063267,6.94710228 85.5125221,7.83306623 84.7413913,9.26061071 C84.3138571,10.0633148 84.100448,10.9629352 84.1218125,11.8724289 C84.1008483,12.7818803 84.3142336,13.6814003 84.7413913,14.4842471 C85.5125221,15.9117915 87.0063267,16.7977555 88.6270356,16.7888599 C89.4056284,16.7919282 90.170803,16.5858247 90.8427674,16.1919743 L90.8427674,16.1919743 Z" id="Shape"></path>
                    <path d="M100.163718,17.841395 C99.1763484,17.2525262 98.3707355,16.4018072 97.8358715,15.3832132 C97.2686725,14.3016009 96.9815861,13.0947431 97.0009153,11.8732132 C96.982749,10.6470982 97.2696973,9.43574399 97.8358715,8.34844049 C98.3674181,7.32747171 99.1738044,6.47593597 100.163718,5.89025867 C101.183984,5.292552 102.348204,4.98601413 103.530096,5.00389504 C104.781978,4.95923673 106.017502,5.29948603 107.070546,5.97889504 C108.00589,6.60895543 108.718419,7.5189717 109.106305,8.57889504 L107.159058,9.38844049 C106.881806,8.65037867 106.381607,8.01727562 105.728125,7.57730413 C105.04286,7.14868487 104.246228,6.93279677 103.438634,6.95684958 C102.68479,6.9549133 101.946319,7.17030575 101.311414,7.57730413 C100.642916,8.00512965 100.099356,8.60246369 99.7359132,9.30866776 C99.3290896,10.0999325 99.1262489,10.9804898 99.1458382,11.8702587 C99.1258641,12.759123 99.3287403,13.6388184 99.7359132,14.428895 C100.099665,15.1383229 100.645499,15.7379572 101.317314,16.1661678 C101.95222,16.5731661 102.69069,16.7885586 103.444535,16.7866223 C104.276051,16.8109797 105.096517,16.5911948 105.804835,16.1543496 C106.47313,15.7246833 106.989286,15.0951174 107.280023,14.3550314 L109.177114,15.1675314 C108.74692,16.2214066 108.011085,17.1219169 107.064646,17.7527587 C106.012968,18.4366678 104.777543,18.7820449 103.524195,18.7425314 C102.342451,18.7585168 101.179349,18.4466227 100.163718,17.841395 Z" id="Path"></path>
                    <path d="M112,-4.08562073e-14 L114.150824,-4.08562073e-14 L114.150824,5.34772727 L114.050511,7.12045455 L114.150824,7.12045455 C114.546115,6.42298537 115.130086,5.85150347 115.835488,5.47181818 C116.602145,5.03230188 117.471747,4.80490674 118.355108,4.81295455 C119.921758,4.81295455 121.12256,5.27386364 121.948666,6.19568182 C122.774771,7.1175 123.187823,8.33477273 123.187823,9.85636364 L123.187823,18.1497727 L121.037,18.1497727 L121.037,10.1902273 C121.037,9.02416667 120.741962,8.16242424 120.151887,7.605 C119.525481,7.02918255 118.697322,6.72442269 117.847644,6.75704545 C117.178414,6.75466087 116.526003,6.96691644 115.985957,7.36272727 C114.846466,8.19873612 114.166567,9.52323995 114.150824,10.9377273 L114.150824,18.1497727 L112,18.1497727 L112,-4.08562073e-14 Z" id="Path"></path>
                    <path d="M127.331081,18.1571658 C126.625768,17.817232 126.029832,17.2859664 125.611012,16.6237567 C125.201592,15.9571693 124.990735,15.1873771 125.003235,14.404893 C124.951126,13.1447325 125.531243,11.9418384 126.549232,11.1992112 C127.575962,10.4310294 128.875111,10.0469385 130.446677,10.0469385 C131.175347,10.0403625 131.901941,10.1257314 132.609302,10.3010294 C133.145899,10.4217131 133.661841,10.6208156 134.140547,10.8919385 L134.140547,10.1089839 C134.174611,9.22168434 133.801884,8.36744444 133.128569,7.78966576 C132.415051,7.189032 131.505187,6.8733911 130.573543,6.90330212 C129.878681,6.89602244 129.192374,7.05719798 128.573189,7.37307485 C127.980179,7.67617779 127.481263,8.1359521 127.130455,8.7026203 L125.510699,7.48534757 C126.027254,6.69807637 126.748435,6.06678968 127.596615,5.65943848 C128.515393,5.21265924 129.525707,4.98704077 130.54699,5.00057485 C132.303447,5.00057485 133.680289,5.46148394 134.677516,6.38330212 C135.674742,7.3051203 136.176306,8.55981727 136.182207,10.147393 L136.182207,18.3226203 L134.131696,18.3226203 L134.131696,16.4701203 L134.046135,16.4701203 C133.633127,17.1355174 133.058648,17.6853978 132.376223,18.0685294 C131.615298,18.5115442 130.748503,18.7392718 129.868404,18.727393 C128.989607,18.7398881 128.120271,18.5445171 127.331081,18.1571658 L127.331081,18.1571658 Z M132.090036,16.257393 C132.707235,15.8939278 133.221193,15.3782255 133.582926,14.7594385 C133.953331,14.1402136 134.146261,13.4307835 134.140547,12.7089839 C133.680251,12.4127842 133.176538,12.1904781 132.647657,12.0501203 C132.038292,11.8771755 131.407519,11.7916271 130.774169,11.7960294 C129.594019,11.7960294 128.708906,12.0412567 128.118831,12.5317112 C127.540436,12.9892038 127.212207,13.6937014 127.233719,14.4314839 C127.214535,15.1016734 127.514625,15.7410877 128.042121,16.1539839 C128.630714,16.6119602 129.362717,16.845485 130.107384,16.8128476 C130.804883,16.8121443 131.489471,16.6244324 132.090036,16.2692112 L132.090036,16.257393 Z" id="Shape"></path>
                    <path d="M142.938751,17.8809091 C142.216479,17.5002168 141.606206,16.9369538 141.168526,16.2470455 L141.065263,16.2470455 L141.065263,18.1497727 L139,18.1497727 L139,-4.35207426e-13 L141.153774,-4.35207426e-13 L141.153774,5.34772727 L141.050511,7.14704545 L141.153774,7.14704545 C141.586543,6.44629342 142.197456,5.87326267 142.923999,5.48659091 C143.734515,5.03232713 144.650636,4.80093461 145.579337,4.81590909 C146.688812,4.80493753 147.778197,5.1125292 148.718536,5.70227273 C149.670207,6.30386571 150.440279,7.15367422 150.94607,8.16045455 C151.496552,9.25261302 151.774926,10.4619566 151.757423,11.6852273 C151.779349,12.9155798 151.500825,14.1326722 150.94607,15.2306818 C150.437669,16.232532 149.667936,17.0778826 148.718536,17.6770455 C147.778197,18.266789 146.688812,18.5743806 145.579337,18.5634091 C144.654381,18.5735745 143.743257,18.3380804 142.938751,17.8809091 L142.938751,17.8809091 Z M147.432173,15.9929545 C148.106411,15.5689218 148.652996,14.9694829 149.013574,14.2586364 C149.418112,13.4623021 149.620761,12.5785182 149.603649,11.6852273 C149.620761,10.7919364 149.418112,9.90815247 149.013574,9.11181818 C148.652212,8.40073238 148.105858,7.80052612 147.432173,7.37454545 C146.146694,6.56719293 144.513367,6.56719293 143.227888,7.37454545 C142.557478,7.79486344 142.015481,8.39180153 141.661239,9.1 C141.256413,9.90046053 141.053803,10.7881308 141.071163,11.6852273 C141.053803,12.5823238 141.256413,13.469994 141.661239,14.2704545 C142.014781,14.9783537 142.556996,15.5745078 143.227888,15.9929545 C144.512132,16.8045957 146.147929,16.8045957 147.432173,15.9929545 L147.432173,15.9929545 Z" id="Shape"></path>
                    <path d="M156.331232,18.1571658 C155.625297,17.8181679 155.029127,17.286694 154.611164,16.6237567 C154.201743,15.9571693 153.990886,15.1873771 154.003386,14.404893 C153.950068,13.1451669 154.52914,11.942144 155.546432,11.1992112 C156.577097,10.4310294 157.876246,10.0469385 159.443878,10.0469385 C160.173529,10.0402083 160.901119,10.1255777 161.609454,10.3010294 C162.146051,10.4217131 162.661993,10.6208156 163.140699,10.8919385 L163.140699,10.1089839 C163.174762,9.22168434 162.802035,8.36744444 162.12872,7.78966576 C161.414297,7.18858859 160.503351,6.87293684 159.570744,6.90330212 C158.876825,6.89603087 158.191477,7.05721912 157.57334,7.37307485 C156.98033,7.67617779 156.481414,8.1359521 156.130607,8.7026203 L154.510851,7.48534757 C155.027405,6.69807637 155.748586,6.06678968 156.596766,5.65943848 C157.515544,5.21265924 158.525858,4.98704077 159.547141,5.00057485 C161.301631,5.00057485 162.678473,5.46148394 163.677667,6.38330212 C164.676861,7.3051203 165.179408,8.55981727 165.185309,10.147393 L165.185309,18.3226203 L163.120046,18.3226203 L163.120046,16.4701203 L163.019733,16.4701203 C162.606407,17.1362955 162.03076,17.6863215 161.34687,18.0685294 C160.591516,18.509405 159.73099,18.7370929 158.856754,18.727393 C157.981934,18.7380284 157.116854,18.5427055 156.331232,18.1571658 Z M161.090188,16.257393 C161.706741,15.893095 162.220512,15.3775817 162.583078,14.7594385 C162.953483,14.1402136 163.146412,13.4307835 163.140699,12.7089839 C162.680402,12.4127842 162.176689,12.1904781 161.647809,12.0501203 C161.038444,11.8771755 160.40767,11.7916271 159.77432,11.7960294 C158.59417,11.7960294 157.70414,12.0412567 157.104231,12.5317112 C156.526213,12.9895027 156.198078,13.6937989 156.219118,14.4314839 C156.201114,15.1020901 156.502248,15.7413964 157.030471,16.1539839 C157.61882,16.6124241 158.350998,16.8460047 159.095734,16.8128476 C159.797198,16.81397 160.486061,16.6262038 161.090188,16.2692112 L161.090188,16.257393 Z" id="Shape"></path>
                    <path d="M168,5.40597945 L170.050511,5.40597945 L170.050511,7.30870673 L170.150824,7.30870673 C170.552293,6.62009968 171.129716,6.05103832 171.823686,5.66007036 C172.535174,5.22771688 173.351752,4.99977387 174.183987,5.00120673 C175.056632,4.98081331 175.915812,5.2192978 176.653451,5.68666127 C177.334001,6.1206969 177.860535,6.75860009 178.158142,7.50961582 C178.602614,6.76165156 179.224939,6.13540136 179.969673,5.68666127 C180.758489,5.21975974 181.661693,4.98238489 182.577804,5.00120673 C184.06086,5.00120673 185.178069,5.45325218 185.929431,6.35734309 C186.680793,7.261434 187.056474,8.49052491 187.056474,10.0446158 L187.056474,18.3350704 L184.938105,18.3350704 L184.938105,10.3755249 C184.938105,9.17597945 184.696174,8.30734309 184.206412,7.76370673 C183.716649,7.22007036 182.984956,6.94234309 182.023134,6.94234309 C181.39681,6.93714039 180.785083,7.13167949 180.276512,7.49779764 C179.738196,7.88455904 179.310864,8.40623358 179.037354,9.01052491 C178.74041,9.6455604 178.589194,10.3391103 178.594798,11.0402976 L178.594798,18.3350704 L176.443974,18.3350704 L176.443974,10.3991613 C176.443974,9.18484309 176.199093,8.30438854 175.709331,7.76370673 C175.219568,7.22302491 174.514429,6.94234309 173.567358,6.94234309 C172.937335,6.94360702 172.325002,7.1511193 171.823686,7.53325218 C171.289052,7.92409668 170.86508,8.44742854 170.59338,9.05188854 C170.297265,9.69139009 170.146133,10.3885876 170.150824,11.0934795 L170.150824,18.3350704 L168,18.3350704 L168,5.40597945 Z" id="Path"></path>
                    <path d="M193.935801,17.8809091 C193.213528,17.5002168 192.603256,16.9369538 192.165575,16.2470455 L192.065263,16.2470455 L192.065263,18.1497727 L190,18.1497727 L190,1.56319402e-13 L192.192129,1.56319402e-13 L192.192129,5.34772727 L192.091816,7.14704545 L192.192129,7.14704545 C192.624898,6.44629342 193.235811,5.87326267 193.962354,5.48659091 C194.772922,5.03245871 195.689007,4.80107527 196.617692,4.81590909 C197.727101,4.80543306 198.81635,5.11298626 199.756891,5.70227273 C200.707476,6.30427846 201.476494,7.15404924 201.981474,8.16045455 C202.531957,9.25261302 202.810331,10.4619566 202.792827,11.6852273 C202.814753,12.9155798 202.53623,14.1326722 201.981474,15.2306818 C201.474741,16.2327501 200.705873,17.0782703 199.756891,17.6770455 C198.81635,18.2663319 197.727101,18.5738851 196.617692,18.5634091 C195.678792,18.5808162 194.75249,18.3450867 193.935801,17.8809091 Z M198.429222,15.9929545 C199.104133,15.5697291 199.65091,14.9700807 200.010623,14.2586364 C200.415047,13.4622605 200.617689,12.5785056 200.600698,11.6852273 C200.617689,10.7919489 200.415047,9.90819408 200.010623,9.11181818 C199.650238,8.40005718 199.103669,7.79961534 198.429222,7.37454545 C197.144862,6.56700617 195.512248,6.56700617 194.227888,7.37454545 C193.556588,7.79468124 193.01359,8.391596 192.658288,9.1 C192.253463,9.90046053 192.050853,10.7881308 192.068213,11.6852273 C192.050853,12.5823238 192.253463,13.469994 192.658288,14.2704545 C193.012892,14.9785595 193.556106,15.5746897 194.227888,15.9929545 C195.511009,16.8047913 197.146101,16.8047913 198.429222,15.9929545 L198.429222,15.9929545 Z" id="Shape"></path>
                    <path d="M207.334031,18.1572402 C206.627811,17.8174974 206.030875,17.2862508 205.611012,16.6238311 C205.201592,15.9572437 204.990735,15.1874516 205.003235,14.4049675 C204.951126,13.144807 205.531243,11.9419129 206.549232,11.1992857 C207.579896,10.4311038 208.879045,10.0470129 210.446677,10.0470129 C211.175347,10.0404369 211.901941,10.1258059 212.609302,10.3011038 C213.145899,10.4217875 213.661841,10.6208901 214.140547,10.8920129 L214.140547,10.1090584 C214.174611,9.22175879 213.801884,8.36751889 213.128569,7.78974021 C212.415331,7.18861271 211.505272,6.87290419 210.573543,6.90337657 C209.878681,6.89609689 209.192374,7.05727243 208.573189,7.3731493 C207.978012,7.67537048 207.476972,8.13522126 207.124555,8.70269475 L205.504799,7.48542202 C206.023288,6.69873006 206.745227,6.06767192 207.593664,5.65951293 C208.512152,5.21190121 209.522666,4.98623811 210.54404,5.0006493 C212.29853,5.0006493 213.675371,5.46155839 214.674565,6.38337657 C215.673759,7.30519475 216.175323,8.55989172 216.179257,10.1474675 L216.179257,18.3226948 L214.113994,18.3226948 L214.113994,16.4701948 L214.013681,16.4701948 C213.60148,17.1362474 213.026812,17.6863088 212.343769,18.0686038 C211.583763,18.5112388 210.718019,18.7389581 209.8389,18.7274675 C208.970972,18.7355241 208.113185,18.5402509 207.334031,18.1572402 L207.334031,18.1572402 Z M212.092987,16.2574675 C212.708903,15.8923469 213.222488,15.3770193 213.585877,14.7595129 C213.953985,14.1394514 214.145791,13.4304016 214.140547,12.7090584 C213.680251,12.4128586 213.176538,12.1905526 212.647657,12.0501948 C212.038333,11.8770542 211.407531,11.791502 210.774169,11.7961038 C209.594019,11.7961038 208.708906,12.0413311 208.118831,12.5317857 C207.540436,12.9892782 207.212207,13.6937758 207.233719,14.4315584 C207.202961,15.1002029 207.490906,15.7437867 208.009667,16.1658766 C208.59826,16.6238528 209.330263,16.8573777 210.07493,16.8247402 C210.785426,16.8259606 211.482922,16.6339802 212.092987,16.2692857 L212.092987,16.2574675 Z" id="Shape"></path>
                </g>
                <g id="Group-11">
                    <g id="Group-3" transform="translate(0.000000, 9.357613)">
                        <mask id="mask-2" fill="white">
                            <use xlink:href="#path-1"></use>
                        </mask>
                        <g id="Clip-2"></g>
                        <path d="M22.9070348,15.4782783 C22.1181652,16.844713 20.6859913,17.6089304 19.2139043,17.6089304 C18.4919478,17.6089304 17.7594261,17.4246261 17.0879478,17.0372348 L2.12994783,8.40075652 C0.0932086957,7.22566957 -0.605269565,4.61958261 0.570991304,2.58284348 C1.36103478,1.2164087 2.79203478,0.452191304 4.26412174,0.452191304 C4.98607826,0.452191304 5.7186,0.636495652 6.39007826,1.02388696 L21.3480783,9.6591913 C23.3859913,10.8354522 24.0832957,13.4403652 22.9070348,15.4782783" id="Fill-1" fill="#FFFFFF" mask="url(#mask-2)"></path>
                    </g>
                    <g id="Group-6" transform="translate(29.347826, 1.140222)">
                        <mask id="mask-4" fill="white">
                            <use xlink:href="#path-3"></use>
                        </mask>
                        <g id="Clip-5"></g>
                        <path d="M1.05323478,2.1639913 C1.84210435,0.797556522 3.27427826,0.0333391304 4.74636522,0.0333391304 C5.46832174,0.0333391304 6.20084348,0.217643478 6.87232174,0.605034783 L21.8303217,9.24151304 C23.8670609,10.4166 24.5655391,13.022687 23.3892783,15.0594261 C22.5992348,16.4258609 21.1682348,17.1900783 19.6961478,17.1900783 C18.9741913,17.1900783 18.2416696,17.0057739 17.5701913,16.6183826 L2.6121913,7.98307826 C0.575452174,6.80681739 -0.123026087,4.20190435 1.05323478,2.1639913" id="Fill-4" fill="#FFFFFF" mask="url(#mask-4)"></path>
                    </g>
                    <path d="M21.3479609,9.12283043 L13.8243522,13.4663087 L6.91352609,9.47617826 C6.28313478,9.11226522 5.58583043,8.88335217 4.86856957,8.80000435 L17.0890043,1.74478696 C17.7593087,1.35739565 18.4918304,1.17426522 19.2149609,1.17426522 C20.6870478,1.17426522 22.1180478,1.9373087 22.9069174,3.30374348 C24.0831783,5.34165652 23.3858739,7.94656957 21.3479609,9.12283043" id="Fill-7" fill="#FFFFFF"></path>
                    <path d="M31.9601348,19.0173913 L39.4837435,14.673913 L46.3957435,18.6640435 C47.0249609,19.0279565 47.7222652,19.2568696 48.4395261,19.3402174 L36.2190913,26.3954348 C35.548787,26.7828261 34.8162652,26.9659565 34.0943087,26.9659565 C32.6222217,26.9659565 31.1900478,26.202913 30.4011783,24.8364783 C29.2249174,22.7985652 29.9233957,20.1936522 31.9601348,19.0173913" id="Fill-9" fill="#FFFFFF"></path>
                </g>
            </g>
        </g>
    </g>
</svg>