<svg width="346" height="150" fill="none" xmlns="http://www.w3.org/2000/svg">
	<g clip-path="url(#clip0)">
		
		<path d="M315.829 133.019a4.602 4.602 0 01-4.255-2.843 4.606 4.606 0 118.86-1.762 4.61 4.61 0 01-4.605 4.605zm-50.903 0a4.602 4.602 0 01-4.516-5.503 4.61 4.61 0 016.279-3.357 4.606 4.606 0 01-1.763 8.86zm52.555-27.743l9.2-15.934a1.933 1.933 0 00.189-1.461 1.93 1.93 0 00-.899-1.168 1.922 1.922 0 00-2.628.71l-9.316 16.129a57.89 57.89 0 00-47.343 0l-9.316-16.13a1.917 1.917 0 00-1.168-.898 1.925 1.925 0 00-2.17 2.817l9.205 15.935a54.335 54.335 0 00-28.193 43.5h110.633a54.365 54.365 0 00-28.194-43.5z" fill="#3DDB85"/>
		<path d="M252.156 3.877H3.876v58.528h248.28V3.877z" fill="#3DDC84"/>
		<path d="M248.28 0H0v58.528h248.28V0z" fill="#EFF7CF"/>
		<path d="M61.881 27.198c-4.038 0-6.757 3.176-6.757 7.286 0 4.11 2.72 7.23 6.757 7.23 4.038 0 6.764-3.175 6.764-7.23 0-4.055-2.726-7.258-6.764-7.258v-.028zm-.906-4.51a9.05 9.05 0 017.258 3.453V23.11h5.006v22.687h-3.844a1.151 1.151 0 01-1.15-1.151V42.76c-1.269 1.813-3.994 3.488-7.26 3.488-6.223 0-10.928-5.306-10.928-11.764 0-6.457 4.722-11.797 10.934-11.797M78.89 23.11h5.005v3.087c1.358-2.27 3.95-3.538 6.897-3.538 5.262 0 8.666 3.721 8.666 9.456v13.682h-3.844a1.151 1.151 0 01-1.15-1.151v-11.68c0-3.588-1.814-5.763-4.717-5.763-3.338 0-5.852 2.587-5.852 7.437v11.157h-3.837a1.157 1.157 0 01-1.157-1.151L78.89 23.11zM115.239 27.198c-4.038 0-6.78 3.175-6.78 7.286 0 4.11 2.725 7.23 6.763 7.23s6.758-3.176 6.758-7.23c0-4.055-2.726-7.259-6.758-7.259l.017-.027zm-.929-4.511a9.043 9.043 0 017.23 3.493V11.769h5.006v34.028h-3.838a1.157 1.157 0 01-1.157-1.152V42.76a9.036 9.036 0 01-7.23 3.487c-6.213 0-10.929-5.306-10.929-11.791s4.716-11.797 10.929-11.797M132.247 23.11h5.006v4.043a6.38 6.38 0 015.99-4.266 9.904 9.904 0 011.947.178v5.128a7.753 7.753 0 00-2.492-.406c-2.859 0-5.445 2.403-5.445 6.942v11.068h-3.838a1.152 1.152 0 01-1.151-1.151l-.017-21.536zM158.633 41.626c3.993 0 6.807-3.132 6.807-7.17s-2.814-7.17-6.807-7.17c-3.994 0-6.853 3.132-6.853 7.198 0 4.066 2.842 7.142 6.853 7.142zm0 4.622a11.797 11.797 0 1111.886-11.764 11.685 11.685 0 01-7.327 10.952 11.684 11.684 0 01-4.559.84M174.562 23.11h5.005v22.687h-3.832a1.157 1.157 0 01-1.157-1.151l-.016-21.536zm2.497-4.945a3.338 3.338 0 110-6.676 3.338 3.338 0 010 6.676zM195.497 27.198c-4.038 0-6.758 3.175-6.758 7.258 0 4.082 2.72 7.23 6.758 7.23s6.758-3.175 6.758-7.23c0-4.055-2.72-7.258-6.758-7.258zm-.906-4.539a9.048 9.048 0 017.258 3.482V11.769h5.006v34.028h-3.844a1.152 1.152 0 01-1.151-1.152V42.76c-1.268 1.813-3.993 3.487-7.258 3.487-6.218 0-10.935-5.306-10.935-11.791s4.717-11.797 10.935-11.797M215.286 18.466h-5.006V13.51h10.012v32.287h-5.006V18.466zM229.247 18.466h-5.006V13.51h10.012v32.287h-5.006V18.466z" fill="#073042"/>
		<!-- HASHTAG -->
		<path d="M33.216 12.236h5.006v34.011H34.35a1.112 1.112 0 01-1.112-1.112V12.236h-.022zM20.58 12.236h5.005v34.011h-3.893a1.113 1.113 0 01-1.113-1.112V12.236z" fill="#3DDB85"/>
		<path d="M46.392 38.06v-4.989H12.37v4.99h34.022zM46.392 25.401v-4.989H12.37v4.99h34.022z" fill="#3DDB85"/>
		<!-- /HASHTAG -->
	</g>
	<defs>
		<clipPath id="clip0">
			<path fill="#fff" d="M0 0h345.675v150H0z"/>
		</clipPath>
	</defs>
</svg>