<?xml version="1.0" encoding="UTF-8"?>
<svg width="283px" height="26px" version="1.1" xmlns="http://www.w3.org/2000/svg" xmlns:xlink="http://www.w3.org/1999/xlink">
    <g id="Page-1" stroke="none" stroke-width="1" fill="none" fill-rule="evenodd">
        <g id="Devfest-Web-Home" transform="translate(-17.000000, -17.000000)" fill-rule="nonzero">
            <g id="logo-gdgcochabamba" transform="translate(17.000000, 17.000000)">
                <path d="M40.7151793,12.9202273 C37.9182235,11.2981818 35.1094662,9.685 32.3302127,8.04522727 C29.6925771,6.5 29.3208299,3.07272727 31.5690158,1.06954545 C32.9121489,-0.13144588 34.8701861,-0.341786762 36.4371351,0.546590909 C41.48031,3.44007576 46.5116833,6.35128788 51.5312552,9.28022727 C53.1362594,10.2227273 53.8148457,11.7443182 53.5404608,13.5761364 C53.2778774,15.3193182 52.2363949,16.4922727 50.531078,17.03 C50.5025705,17.0482645 50.4893837,17.083079 50.4986239,17.1156818 L50.4986239,17.0979545 C48.9526272,17.4347727 47.6190575,16.9502273 46.3090909,16.1465909 C44.4739575,15.0209091 42.5857173,13.9927273 40.7151793,12.9202273 Z" id="Path" fill="#109D58"></path>
                <path d="M13.167525,12.9172727 L18.8292952,16.25 C19.8029191,16.8172727 20.7942452,17.355 21.7501668,17.9518182 C23.4109019,18.9789092 24.1645226,21.0031368 23.580571,22.8682896 C22.9966194,24.7334424 21.2238324,25.9644518 19.2748019,25.8581818 C18.5759676,25.8209665 17.8970487,25.6119292 17.2980505,25.2495455 C12.3532214,22.3816667 7.40839241,19.5157576 2.46356339,16.6518182 C1.04200602,15.9025695 0.192755283,14.3867995 0.295037531,12.7813636 C0.356995413,11.0884091 1.20965388,9.84159091 2.72319641,9.06454545 L3.15690158,8.84295455 C3.24541284,8.84295455 3.36342786,8.88431818 3.38408048,8.73068182 L3.38408048,8.73068182 C3.80598415,8.70113636 4.2308382,8.63909091 4.65569224,8.64795455 C5.49372423,8.68638614 6.30726044,8.94301226 7.01599249,9.3925 C9.05470183,10.5890909 11.1140638,11.7472727 13.167525,12.9172727 Z" id="Path" fill="#4385F3"></path>
                <path d="M13.167525,12.9172727 C11.1022623,11.7354545 9.05470183,10.5890909 7.01009174,9.40136364 C6.30135968,8.95187589 5.48782348,8.69524978 4.64979149,8.65681818 C4.22493745,8.65681818 3.8000834,8.71 3.37817973,8.73954545 C4.04296355,8.26634738 4.74218949,7.84365105 5.46999583,7.475 C9.43726717,5.17045455 13.4084723,2.87575758 17.3836113,0.590909091 C19.166088,-0.432460113 21.4236647,-0.0391905715 22.7563411,1.52683783 C24.0890174,3.09286624 24.1187303,5.38739147 22.8270538,6.9875 C22.428556,7.45705352 21.9450688,7.84699625 21.4020225,8.13681818 L13.167525,12.9172727 Z" id="Path" fill="#E94436"></path>
                <path d="M40.7151793,12.9202273 C42.5798165,13.9927273 44.4680567,15.0209091 46.3002398,16.1465909 C47.6102064,16.9502273 48.9555776,17.4347727 50.4897727,17.0979545 C50.4750209,17.2515909 50.3363532,17.2811364 50.2389908,17.3372727 C45.6737768,19.9845455 41.1016785,22.6259091 36.522696,25.2613636 C34.7432787,26.334295 32.4481202,25.9451607 31.1205588,24.3454545 C29.8337911,22.8414921 29.750681,20.6482005 30.9199333,19.0509091 C31.3305279,18.5083975 31.8540218,18.0617906 32.4541284,17.7420455 C35.115367,16.2096212 37.7707048,14.6732576 40.4201418,13.1329545 C40.5228948,13.0683855 40.6214399,12.9973328 40.7151793,12.9202273 Z" id="Path" fill="#FABC05"></path>
                <path d="M3.38703086,8.73068182 C3.36637823,8.88431818 3.24836322,8.83113636 3.15985196,8.84295455 C3.20393741,8.7608616 3.29514789,8.71578501 3.38703086,8.73068182 L3.38703086,8.73068182 Z" id="Path" fill="#E94436"></path>
                <path d="M50.4897727,17.1156818 C50.4805326,17.083079 50.4937194,17.0482645 50.5222269,17.03 C50.5300845,17.0455574 50.5310435,17.0637075 50.5248691,17.0800084 C50.5186948,17.0963092 50.5059568,17.1092566 50.4897727,17.1156818 L50.4897727,17.1156818 Z" id="Path" fill="#FABC05"></path>
                <path d="M70.9240721,20.8945455 C69.5015893,20.0787385 68.3221931,18.8976752 67.5075375,17.4731818 C66.6612917,16.0108845 66.2240677,14.347289 66.2418265,12.6572727 C66.2240677,10.9672564 66.6612917,9.30366099 67.5075375,7.84136364 C69.1790687,4.93449 72.2833293,3.15328199 75.6328711,3.17909091 C76.9197426,3.17043951 78.1961284,3.41122881 79.3916493,3.88818182 C80.5017088,4.31763417 81.4945202,5.00406749 82.2889178,5.89136364 L80.7458716,7.43659091 C80.1592263,6.71723723 79.4027582,6.15568473 78.5448916,5.80272727 C77.6315961,5.41879799 76.6498967,5.22479413 75.6594245,5.2325 C74.4055872,5.22418705 73.1711877,5.54289641 72.0776689,6.15727273 C70.9748876,6.77261979 70.0577249,7.67373014 69.4223311,8.76613636 C68.7408405,9.94757715 68.3949721,11.2931596 68.4221539,12.6572727 C68.3938646,14.0201978 68.7387406,15.3648675 69.4193807,16.5454545 C70.056647,17.6422563 70.9795596,18.5450274 72.0894704,19.1572727 C74.1336708,20.2525241 76.5579383,20.3824052 78.7071622,19.5118182 C79.5019992,19.1482683 80.2200449,18.6357997 80.8225813,18.0020455 C81.2770442,17.5008518 81.6369188,16.9212355 81.8847164,16.2913636 C82.1637437,15.5823485 82.334808,14.8353742 82.392181,14.0754545 L75.6830275,14.0754545 L75.6830275,12.0752273 L84.3807339,12.0752273 C84.4621507,12.5098061 84.5046084,12.9508038 84.5076031,13.3929545 C84.5084471,14.4980167 84.3290634,15.5957996 83.9765325,16.6429545 C83.6303936,17.6863653 83.0500466,18.6364474 82.2800667,19.4202273 C80.6101543,21.2284091 78.3914721,22.1325 75.62402,22.1325 C73.9751337,22.147178 72.3523612,21.7197438 70.9240721,20.8945455 L70.9240721,20.8945455 Z" id="Path" fill="#696E74"></path>
                <path d="M87.7058069,3.58386364 L93.1728524,3.58386364 C94.8637161,3.54145579 96.5370598,3.93520158 98.0321205,4.72727273 C99.383899,5.46387917 100.492155,6.5788352 101.221476,7.93590909 C101.987455,9.39148784 102.371228,11.0182204 102.336718,12.6631818 C102.371098,14.3081295 101.987333,15.93483 101.221476,17.3904545 C100.492112,18.7467457 99.3837942,19.8607371 98.0321205,20.5961364 C96.5381574,21.392309 94.8647535,21.7901388 93.1728524,21.7513636 L87.7058069,21.7513636 L87.7058069,3.58386364 Z M93.1728524,19.6802273 C95.3148249,19.6802273 97.0152245,19.0627273 98.2740513,17.8277273 C99.5328781,16.5927273 100.161308,14.8692424 100.159346,12.6572727 C100.159346,10.4433333 99.5309112,8.71984848 98.2740513,7.48681818 C97.0171914,6.25378788 95.3167918,5.63727273 93.1728524,5.63727273 L89.8330275,5.63727273 L89.8330275,19.6802273 L93.1728524,19.6802273 Z" id="Shape" fill="#696E74"></path>
                <path d="M109.296653,20.8945455 C107.874171,20.0787385 106.694774,18.8976752 105.880119,17.4731818 C105.033873,16.0108845 104.596649,14.347289 104.614408,12.6572727 C104.596649,10.9672564 105.033873,9.30366099 105.880119,7.84136364 C107.55165,4.93449 110.655911,3.15328199 114.005452,3.17909091 C115.292304,3.17066282 116.568647,3.41144413 117.764231,3.88818182 C118.877057,4.31720467 119.872843,5.00359735 120.67035,5.89136364 L119.127304,7.43659091 C118.539057,6.71765739 117.781757,6.15623997 116.923374,5.80272727 C114.825454,4.93286785 112.446712,5.063275 110.456151,6.15727273 C109.353982,6.77343884 108.437013,7.67435841 107.800813,8.76613636 C107.120353,9.94787311 106.775509,11.2934371 106.803586,12.6572727 C106.771714,14.0190875 107.11249,15.3636837 107.789012,16.5454545 C108.427439,17.6423713 109.351323,18.5450958 110.462052,19.1572727 C112.506252,20.2525241 114.93052,20.3824052 117.079744,19.5118182 C117.874483,19.1494008 118.592556,18.6379151 119.195163,18.005 C119.651576,17.504725 120.012568,16.9249198 120.260248,16.2943182 C120.538266,15.5851452 120.708334,14.8381758 120.764762,14.0784091 L114.055609,14.0784091 L114.055609,12.0752273 L122.762166,12.0752273 C122.842125,12.5100118 122.884571,12.9508809 122.889036,13.3929545 C122.88988,14.4980167 122.710496,15.5957996 122.357965,16.6429545 C122.011826,17.6863653 121.431479,18.6364474 120.661499,19.4202273 C118.991587,21.2284091 116.772905,22.1325 114.005452,22.1325 C112.35357,22.1487641 110.727536,21.7212758 109.296653,20.8945455 L109.296653,20.8945455 Z" id="Path" fill="#696E74"></path>
                <path d="M135.165544,20.8945455 C133.750226,20.0879129 132.581275,18.9101587 131.784414,17.4879545 C130.958976,16.0135226 130.535674,14.3474697 130.557058,12.6572727 C130.536054,10.968058 130.959349,9.30305493 131.784414,7.82954545 C132.582794,6.41078288 133.751575,5.23626476 135.165544,4.43181818 C136.620832,3.5988087 138.271979,3.17039293 139.948103,3.19090909 C141.225511,3.17573567 142.490942,3.43885769 143.656724,3.96204545 C144.775434,4.47709241 145.772059,5.2243586 146.580546,6.15431818 L145.03455,7.65227273 C144.421829,6.88606021 143.649561,6.26293546 142.771612,5.82636364 C141.886423,5.42039147 140.92156,5.21846325 139.948103,5.23545455 C138.681523,5.22236064 137.43354,5.54116323 136.327992,6.16022727 C135.233398,6.77425351 134.327389,7.67643411 133.708059,8.76909091 C133.043231,9.95614645 132.707105,11.299493 132.734435,12.6602273 C132.707443,14.0190482 133.043582,15.3604033 133.708059,16.5454545 C134.326479,17.6395677 135.232642,18.5429248 136.327992,19.1572727 C137.432694,19.7794267 138.680727,20.1012979 139.948103,20.0909091 C142.141215,20.0909091 144.009786,19.1868182 145.553816,17.3786364 L147.111614,18.9090909 C146.256148,19.9122484 145.194385,20.7185142 143.998968,21.2727273 C141.16221,22.5572853 137.885507,22.4202891 135.165544,20.9034091 L135.165544,20.8945455 Z" id="Path" fill="#696E74"></path>
                <path d="M151.793859,21.2254545 C150.794965,20.6289623 149.978583,19.7695277 149.433559,18.7406818 C148.862,17.673954 148.569667,16.4795911 148.583851,15.2690909 C148.569667,14.0585907 148.862,12.8642278 149.433559,11.7975 C149.978583,10.7686542 150.794965,9.90921955 151.793859,9.31272727 C153.909315,8.09524633 156.511473,8.09524633 158.626929,9.31272727 C159.626491,9.9083822 160.443073,10.7680282 160.987229,11.7975 C161.558788,12.8642278 161.851121,14.0585907 161.836937,15.2690909 C161.851121,16.4795911 161.558788,17.673954 160.987229,18.7406818 C160.443073,19.7701536 159.626491,20.6297996 158.626929,21.2254545 C156.511473,22.4429355 153.909315,22.4429355 151.793859,21.2254545 L151.793859,21.2254545 Z M157.426126,19.5915909 C158.119212,19.1808593 158.688157,18.5896685 159.072435,17.8809091 C159.499593,17.0780624 159.712978,16.1785424 159.692014,15.2690909 C159.713379,14.3595972 159.49997,13.4599769 159.072435,12.6572727 C158.688157,11.9485133 158.119212,11.3573225 157.426126,10.9465909 C156.753579,10.5548067 155.988441,10.3507536 155.210394,10.3555946 C153.589685,10.3467189 152.095881,11.2326828 151.32475,12.6602273 C150.897216,13.4629314 150.683807,14.3625518 150.705171,15.2720455 C150.684207,16.1814969 150.897592,17.0810169 151.32475,17.8838636 C152.095881,19.3114081 153.589685,20.1973721 155.210394,20.1884765 C155.988987,20.1915448 156.754162,19.9854413 157.426126,19.5915909 L157.426126,19.5915909 Z" id="Shape" fill="#696E74"></path>
                <path d="M166.828972,21.2372727 C165.841603,20.6484039 165.03599,19.7976849 164.501126,18.7790909 C163.933927,17.6974786 163.646841,16.4906208 163.66617,15.2690909 C163.648003,14.0429759 163.934952,12.8316217 164.501126,11.7443182 C165.032672,10.7233494 165.839059,9.87181366 166.828972,9.28613636 C167.849238,8.68842969 169.013458,8.38189182 170.19535,8.39977273 C171.447232,8.35511442 172.682756,8.69536372 173.735801,9.37477273 C174.671145,10.0048331 175.383673,10.9148494 175.77156,11.9747727 L173.824312,12.7843182 C173.54706,12.0462564 173.046862,11.4131533 172.39338,10.9731818 C171.708115,10.5445626 170.911483,10.3286745 170.103889,10.3527273 C169.350044,10.350791 168.611574,10.5661834 167.976668,10.9731818 C167.30817,11.4010073 166.76461,11.9983414 166.401168,12.7045455 C165.994344,13.4958102 165.791503,14.3763675 165.811093,15.2661364 C165.791119,16.1550007 165.993995,17.0346961 166.401168,17.8247727 C166.764919,18.5342006 167.310753,19.1338349 167.982569,19.5620455 C168.617474,19.9690438 169.355945,20.1844363 170.109789,20.1825 C170.941305,20.2068574 171.761771,19.9870725 172.47009,19.5502273 C173.138385,19.120561 173.65454,18.4909951 173.945277,17.7509091 L175.842369,18.5634091 C175.412174,19.6172843 174.67634,20.5177945 173.7299,21.1486364 C172.678223,21.8325455 171.442797,22.1779226 170.18945,22.1384091 C169.007705,22.1543945 167.844604,21.8425004 166.828972,21.2372727 Z" id="Path" fill="#696E74"></path>
                <path d="M178.167264,3.58386364 L180.318088,3.58386364 L180.318088,8.93159091 L180.217775,10.7043182 L180.318088,10.7043182 C180.71338,10.006849 181.29735,9.4353671 182.002752,9.05568182 C182.769409,8.61616552 183.639011,8.38877038 184.522373,8.39681818 C186.089022,8.39681818 187.289825,8.85772727 188.11593,9.77954545 C188.942035,10.7013636 189.355088,11.9186364 189.355088,13.4402273 L189.355088,21.7336364 L187.204264,21.7336364 L187.204264,13.7740909 C187.204264,12.6080303 186.909226,11.7462879 186.319151,11.1888636 C185.692745,10.6130462 184.864587,10.3082863 184.014908,10.3409091 C183.345678,10.3385245 182.693268,10.5507801 182.153221,10.9465909 C181.013731,11.7825998 180.333831,13.1071036 180.318088,14.5215909 L180.318088,21.7336364 L178.167264,21.7336364 L178.167264,3.58386364 Z" id="Path" fill="#696E74"></path>
                <path d="M193.910467,21.5681818 C193.205154,21.2282481 192.609218,20.6969825 192.190398,20.0347727 C191.780978,19.3681853 191.570121,18.5983932 191.582621,17.8159091 C191.530512,16.5557486 192.110629,15.3528545 193.128618,14.6102273 C194.155348,13.8420455 195.454497,13.4579545 197.026063,13.4579545 C197.754733,13.4513785 198.481327,13.5367475 199.188688,13.7120455 C199.725285,13.8327291 200.241227,14.0318317 200.719933,14.3029545 L200.719933,13.52 C200.753997,12.6327004 200.38127,11.7784605 199.707955,11.2006818 C198.994437,10.6000481 198.084573,10.2844072 197.15293,10.3143182 C196.458067,10.3070385 195.77176,10.468214 195.152575,10.7840909 C194.559565,11.0871939 194.060649,11.5469682 193.709842,12.1136364 L192.090085,10.8963636 C192.60664,10.1090924 193.327821,9.47780574 194.176001,9.07045455 C195.094779,8.6236753 196.105093,8.39805683 197.126376,8.41159091 C198.882833,8.41159091 200.259675,8.8725 201.256902,9.79431818 C202.254128,10.7161364 202.755692,11.9708333 202.761593,13.5584091 L202.761593,21.7336364 L200.711082,21.7336364 L200.711082,19.8811364 L200.625521,19.8811364 C200.212513,20.5465335 199.638034,21.0964139 198.955609,21.4795455 C198.194684,21.9225603 197.327889,22.1502879 196.44779,22.1384091 C195.568993,22.1509042 194.699657,21.9555332 193.910467,21.5681818 L193.910467,21.5681818 Z M198.669422,19.6684091 C199.286621,19.3049439 199.800579,18.7892416 200.162312,18.1704545 C200.532717,17.5512297 200.725647,16.8417996 200.719933,16.12 C200.259637,15.8238002 199.755924,15.6014942 199.227043,15.4611364 C198.617678,15.2881916 197.986905,15.2026432 197.353555,15.2070455 C196.173405,15.2070455 195.288292,15.4522727 194.698217,15.9427273 C194.119822,16.4002198 193.791593,17.1047175 193.813105,17.8425 C193.793921,18.5126895 194.094011,19.1521037 194.621508,19.565 C195.2101,20.0229762 195.942103,20.2565011 196.68677,20.2238636 C197.384269,20.2231603 198.068857,20.0354485 198.669422,19.6802273 L198.669422,19.6684091 Z" id="Shape" fill="#696E74"></path>
                <path d="M209.668422,21.4647727 C208.946149,21.0840805 208.335877,20.5208175 207.898196,19.8309091 L207.794933,19.8309091 L207.794933,21.7336364 L205.729671,21.7336364 L205.729671,3.58386364 L207.883445,3.58386364 L207.883445,8.93159091 L207.780181,10.7309091 L207.883445,10.7309091 C208.316214,10.0301571 208.927127,9.45712631 209.65367,9.07045455 C210.464186,8.61619077 211.380306,8.38479824 212.309008,8.39977273 C213.418482,8.38880117 214.507868,8.69639284 215.448207,9.28613636 C216.399878,9.88772935 217.16995,10.7375379 217.67574,11.7443182 C218.226223,12.8364767 218.504597,14.0458202 218.487093,15.2690909 C218.509019,16.4994434 218.230496,17.7165359 217.67574,18.8145455 C217.16734,19.8163957 216.397607,20.6617462 215.448207,21.2609091 C214.507868,21.8506526 213.418482,22.1582443 212.309008,22.1472727 C211.384052,22.1574381 210.472928,21.9219441 209.668422,21.4647727 L209.668422,21.4647727 Z M214.161843,19.5768182 C214.836081,19.1527855 215.382667,18.5533465 215.743244,17.8425 C216.147782,17.0461657 216.350431,16.1623818 216.333319,15.2690909 C216.350431,14.3758 216.147782,13.4920161 215.743244,12.6956818 C215.381883,11.984596 214.835528,11.3843898 214.161843,10.9584091 C212.876364,10.1510566 211.243037,10.1510566 209.957558,10.9584091 C209.287149,11.3787271 208.745151,11.9756652 208.390909,12.6838636 C207.986084,13.4843242 207.783474,14.3719944 207.800834,15.2690909 C207.783474,16.1661874 207.986084,17.0538577 208.390909,17.8543182 C208.744452,18.5622173 209.286666,19.1583714 209.957558,19.5768182 C211.241802,20.3884594 212.8776,20.3884594 214.161843,19.5768182 L214.161843,19.5768182 Z" id="Shape" fill="#696E74"></path>
                <path d="M222.588115,21.5681818 C221.88218,21.229184 221.28601,20.6977101 220.868046,20.0347727 C220.458626,19.3681853 220.247769,18.5983932 220.260269,17.8159091 C220.206951,16.556183 220.786023,15.35316 221.803315,14.6102273 C222.83398,13.8420455 224.133128,13.4579545 225.700761,13.4579545 C226.430412,13.4512244 227.158001,13.5365938 227.866337,13.7120455 C228.402933,13.8327291 228.918875,14.0318317 229.397581,14.3029545 L229.397581,13.52 C229.431645,12.6327004 229.058918,11.7784605 228.385603,11.2006818 C227.67118,10.5996047 226.760234,10.2839529 225.827627,10.3143182 C225.133708,10.3070469 224.44836,10.4682352 223.830223,10.7840909 C223.237213,11.0871939 222.738297,11.5469682 222.38749,12.1136364 L220.767734,10.8963636 C221.284288,10.1090924 222.005469,9.47780574 222.853649,9.07045455 C223.772427,8.6236753 224.782741,8.39805683 225.804024,8.41159091 C227.558514,8.41159091 228.935356,8.8725 229.93455,9.79431818 C230.933743,10.7161364 231.436291,11.9708333 231.442191,13.5584091 L231.442191,21.7336364 L229.376929,21.7336364 L229.376929,19.8811364 L229.276616,19.8811364 C228.863289,20.5473115 228.287643,21.0973375 227.603753,21.4795455 C226.848399,21.920421 225.987873,22.1481089 225.113636,22.1384091 C224.238816,22.1490445 223.373737,21.9537216 222.588115,21.5681818 Z M227.34707,19.6684091 C227.963624,19.3041111 228.477395,18.7885977 228.83996,18.1704545 C229.210365,17.5512297 229.403295,16.8417996 229.397581,16.12 C228.937285,15.8238002 228.433572,15.6014942 227.904691,15.4611364 C227.295327,15.2881916 226.664553,15.2026432 226.031203,15.2070455 C224.851053,15.2070455 223.961023,15.4522727 223.361113,15.9427273 C222.783095,16.4005188 222.454961,17.104815 222.476001,17.8425 C222.457997,18.5131061 222.759131,19.1524125 223.287354,19.565 C223.875703,20.0234401 224.60788,20.2570208 225.352617,20.2238636 C226.054081,20.2249861 226.742944,20.0372199 227.34707,19.6802273 L227.34707,19.6684091 Z" id="Shape" fill="#696E74"></path>
                <path d="M234.433872,8.80454545 L236.484383,8.80454545 L236.484383,10.7072727 L236.584696,10.7072727 C236.986165,10.0186657 237.563588,9.44960432 238.257558,9.05863636 C238.969046,8.62628288 239.785624,8.39833987 240.617859,8.39977273 C241.490504,8.37937931 242.349684,8.6178638 243.087323,9.08522727 C243.767873,9.5192629 244.294407,10.1571661 244.592014,10.9081818 C245.036486,10.1602176 245.658811,9.53396736 246.403545,9.08522727 C247.192361,8.61832574 248.095565,8.38095089 249.011676,8.39977273 C250.494732,8.39977273 251.611941,8.85181818 252.363303,9.75590909 C253.114665,10.66 253.490346,11.8890909 253.490346,13.4431818 L253.490346,21.7336364 L251.371977,21.7336364 L251.371977,13.7740909 C251.371977,12.5745455 251.130046,11.7059091 250.640284,11.1622727 C250.150521,10.6186364 249.418828,10.3409091 248.457006,10.3409091 C247.830682,10.3357064 247.218955,10.5302455 246.710384,10.8963636 C246.172068,11.283125 245.744736,11.8047996 245.471226,12.4090909 C245.174282,13.0441264 245.023066,13.7376763 245.02867,14.4388636 L245.02867,21.7336364 L242.877846,21.7336364 L242.877846,13.7977273 C242.877846,12.5834091 242.632965,11.7029545 242.143203,11.1622727 C241.65344,10.6215909 240.948301,10.3409091 240.00123,10.3409091 C239.371207,10.342173 238.758874,10.5496853 238.257558,10.9318182 C237.722924,11.3226627 237.298952,11.8459945 237.027252,12.4504545 C236.731137,13.0899561 236.580005,13.7871536 236.584696,14.4920455 L236.584696,21.7336364 L234.433872,21.7336364 L234.433872,8.80454545 Z" id="Path" fill="#696E74"></path>
                <path d="M260.491587,21.4647727 C259.769315,21.0840805 259.159042,20.5208175 258.721362,19.8309091 L258.621049,19.8309091 L258.621049,21.7336364 L256.555786,21.7336364 L256.555786,3.58386364 L258.747915,3.58386364 L258.747915,8.93159091 L258.647602,10.7309091 L258.747915,10.7309091 C259.180684,10.0301571 259.791597,9.45712631 260.51814,9.07045455 C261.328708,8.61632235 262.244793,8.38493891 263.173478,8.39977273 C264.282887,8.38929669 265.372136,8.6968499 266.312677,9.28613636 C267.263262,9.88814209 268.03228,10.7379129 268.53726,11.7443182 C269.087743,12.8364767 269.366117,14.0458202 269.348613,15.2690909 C269.370539,16.4994434 269.092016,17.7165359 268.53726,18.8145455 C268.030527,19.8166138 267.261659,20.6621339 266.312677,21.2609091 C265.372136,21.8501956 264.282887,22.1577488 263.173478,22.1472727 C262.234578,22.1646798 261.308277,21.9289504 260.491587,21.4647727 Z M264.985008,19.5768182 C265.659919,19.1535928 266.206696,18.5539443 266.56641,17.8425 C266.970833,17.0461241 267.173475,16.1623692 267.156485,15.2690909 C267.173475,14.3758126 266.970833,13.4920577 266.56641,12.6956818 C266.206024,11.9839208 265.659455,11.383479 264.985008,10.9584091 C263.700648,10.1508698 262.068034,10.1508698 260.783674,10.9584091 C260.112374,11.3785449 259.569376,11.9754596 259.214074,12.6838636 C258.809249,13.4843242 258.606639,14.3719944 258.623999,15.2690909 C258.606639,16.1661874 258.809249,17.0538577 259.214074,17.8543182 C259.568679,18.5624231 260.111892,19.1585533 260.783674,19.5768182 C262.066795,20.3886549 263.701887,20.3886549 264.985008,19.5768182 L264.985008,19.5768182 Z" id="Shape" fill="#696E74"></path>
                <path d="M273.414231,21.5681818 C272.708011,21.228439 272.111074,20.6971924 271.691211,20.0347727 C271.281791,19.3681853 271.070934,18.5983932 271.083434,17.8159091 C271.031325,16.5557486 271.611442,15.3528545 272.629431,14.6102273 C273.660095,13.8420455 274.959244,13.4579545 276.526877,13.4579545 C277.255546,13.4513785 277.982141,13.5367475 278.689502,13.7120455 C279.226099,13.8327291 279.74204,14.0318317 280.220746,14.3029545 L280.220746,13.52 C280.25481,12.6327004 279.882083,11.7784605 279.208768,11.2006818 C278.49553,10.5995543 277.585471,10.2838458 276.653743,10.3143182 C275.95888,10.3070385 275.272573,10.468214 274.653388,10.7840909 C274.058211,11.0863121 273.557171,11.5461629 273.204754,12.1136364 L271.584998,10.8963636 C272.103487,10.1096717 272.825426,9.47861353 273.673864,9.07045455 C274.592352,8.62284282 275.602865,8.39717972 276.624239,8.41159091 C278.378729,8.41159091 279.755571,8.8725 280.754764,9.79431818 C281.753958,10.7161364 282.255522,11.9708333 282.259456,13.5584091 L282.259456,21.7336364 L280.194193,21.7336364 L280.194193,19.8811364 L280.09388,19.8811364 C279.681679,20.547189 279.107011,21.0972505 278.423968,21.4795455 C277.663962,21.9221804 276.798218,22.1498997 275.919099,22.1384091 C275.051171,22.1464657 274.193384,21.9511925 273.414231,21.5681818 L273.414231,21.5681818 Z M278.173186,19.6684091 C278.789102,19.3032886 279.302687,18.7879609 279.666076,18.1704545 C280.034184,17.550393 280.22599,16.8413432 280.220746,16.12 C279.76045,15.8238002 279.256737,15.6014942 278.727857,15.4611364 C278.118532,15.2879958 277.487731,15.2024436 276.854368,15.2070455 C275.674218,15.2070455 274.789106,15.4522727 274.19903,15.9427273 C273.620635,16.4002198 273.292406,17.1047175 273.313918,17.8425 C273.283161,18.5111445 273.571106,19.1547283 274.089867,19.5768182 C274.678459,20.0347944 275.410462,20.2683193 276.155129,20.2356818 C276.865625,20.2369022 277.563121,20.0449218 278.173186,19.6802273 L278.173186,19.6684091 Z" id="Shape" fill="#696E74"></path>
            </g>
        </g>
    </g>
</svg>